<?xml version="1.0" encoding="UTF-8"?>
<svg id="Layer_1" xmlns="http://www.w3.org/2000/svg" version="1.1" viewBox="0 0 300 300">
  <!-- Generator: Adobe Illustrator 30.0.0, SVG Export Plug-In . SVG Version: 2.1.1 Build 123)  -->
  <g>
    <path d="M89.3,91.6H24.7c-3.4,0-6.1,2.8-6.1,6.1s2.8,6.1,6.1,6.1h52.4l12.3-12.3Z"/>
    <path d="M275.3,91.6h-64.7l12.3,12.3h52.4c3.4,0,6.1-2.8,6.1-6.1s-2.8-6.1-6.1-6.1Z"/>
  </g>
  <path d="M150,250.1c-6.8,0-13.6-2.6-18.8-7.8l-73.5-73.5c-5-5-7.8-11.7-7.8-18.8s2.8-13.8,7.8-18.8l73.5-73.5c5-5,11.7-7.8,18.8-7.8s13.8,2.8,18.8,7.8l73.5,73.5c10.4,10.4,10.4,27.3,0,37.7l-73.5,73.5c-5.2,5.2-12,7.8-18.8,7.8ZM150,58.7c-4.8,0-9.2,1.9-12.6,5.2l-73.5,73.5c-3.4,3.4-5.2,7.8-5.2,12.6s1.9,9.2,5.2,12.6l73.5,73.5c6.9,6.9,18.3,7,25.2,0l73.5-73.5c6.9-6.9,6.9-18.3,0-25.2l-73.5-73.5c-3.4-3.4-7.8-5.2-12.6-5.2Z"/>
  <g>
    <path d="M275.3,196.1h-52.4l-12.3,12.3h64.7c3.4,0,6.1-2.8,6.1-6.1s-2.8-6.1-6.1-6.1Z"/>
    <path d="M77.1,196.1H24.7c-3.4,0-6.1,2.8-6.1,6.1s2.8,6.1,6.1,6.1h64.7l-12.3-12.3Z"/>
  </g>
  <g>
    <path d="M275.3,143.9h-17.4c1,4,1,8.3,0,12.3h17.4c3.4,0,6.1-2.8,6.1-6.1s-2.8-6.1-6.1-6.1Z"/>
    <path d="M42.1,143.9h-17.4c-3.4,0-6.1,2.8-6.1,6.1s2.8,6.1,6.1,6.1h17.4c-1-4-1-8.3,0-12.3Z"/>
  </g>
</svg>